<svg width="503" height="107" viewBox="0 0 503 107" fill="none" xmlns="http://www.w3.org/2000/svg">
<path d="M111.844 47.4C111.844 40.808 113.316 34.92 116.26 29.736C119.268 24.488 123.332 20.424 128.452 17.544C133.636 14.6 139.428 13.128 145.828 13.128C153.316 13.128 159.876 15.048 165.508 18.888C171.14 22.728 175.076 28.04 177.316 34.824H161.86C160.324 31.624 158.148 29.224 155.332 27.624C152.58 26.024 149.38 25.224 145.732 25.224C141.828 25.224 138.34 26.152 135.268 28.008C132.26 29.8 129.892 32.36 128.164 35.688C126.5 39.016 125.668 42.92 125.668 47.4C125.668 51.816 126.5 55.72 128.164 59.112C129.892 62.44 132.26 65.032 135.268 66.888C138.34 68.68 141.828 69.576 145.732 69.576C149.38 69.576 152.58 68.776 155.332 67.176C158.148 65.512 160.324 63.08 161.86 59.88H177.316C175.076 66.728 171.14 72.072 165.508 75.912C159.94 79.688 153.38 81.576 145.828 81.576C139.428 81.576 133.636 80.136 128.452 77.256C123.332 74.312 119.268 70.248 116.26 65.064C113.316 59.88 111.844 53.992 111.844 47.4ZM202.236 9.96V81H188.796V9.96H202.236ZM212.059 54.216C212.059 48.84 213.115 44.072 215.227 39.912C217.403 35.752 220.315 32.552 223.963 30.312C227.675 28.072 231.803 26.952 236.347 26.952C240.315 26.952 243.771 27.752 246.715 29.352C249.723 30.952 252.123 32.968 253.915 35.4V27.816H267.451V81H253.915V73.224C252.187 75.72 249.787 77.8 246.715 79.464C243.707 81.064 240.219 81.864 236.251 81.864C231.771 81.864 227.675 80.712 223.963 78.408C220.315 76.104 217.403 72.872 215.227 68.712C213.115 64.488 212.059 59.656 212.059 54.216ZM253.915 54.408C253.915 51.144 253.275 48.36 251.995 46.056C250.715 43.688 248.987 41.896 246.811 40.68C244.635 39.4 242.299 38.76 239.803 38.76C237.307 38.76 235.003 39.368 232.891 40.584C230.779 41.8 229.051 43.592 227.707 45.96C226.427 48.264 225.787 51.016 225.787 54.216C225.787 57.416 226.427 60.232 227.707 62.664C229.051 65.032 230.779 66.856 232.891 68.136C235.067 69.416 237.371 70.056 239.803 70.056C242.299 70.056 244.635 69.448 246.811 68.232C248.987 66.952 250.715 65.16 251.995 62.856C253.275 60.488 253.915 57.672 253.915 54.408ZM300.929 81.864C296.577 81.864 292.673 81.096 289.217 79.56C285.761 77.96 283.009 75.816 280.961 73.128C278.977 70.44 277.889 67.464 277.697 64.2H291.233C291.489 66.248 292.481 67.944 294.209 69.288C296.001 70.632 298.209 71.304 300.833 71.304C303.393 71.304 305.377 70.792 306.785 69.768C308.257 68.744 308.993 67.432 308.993 65.832C308.993 64.104 308.097 62.824 306.305 61.992C304.577 61.096 301.793 60.136 297.953 59.112C293.985 58.152 290.721 57.16 288.161 56.136C285.665 55.112 283.489 53.544 281.633 51.432C279.841 49.32 278.945 46.472 278.945 42.888C278.945 39.944 279.777 37.256 281.441 34.824C283.169 32.392 285.601 30.472 288.737 29.064C291.937 27.656 295.681 26.952 299.969 26.952C306.305 26.952 311.361 28.552 315.137 31.752C318.913 34.888 320.993 39.144 321.377 44.52H308.513C308.321 42.408 307.425 40.744 305.825 39.528C304.289 38.248 302.209 37.608 299.585 37.608C297.153 37.608 295.265 38.056 293.921 38.952C292.641 39.848 292.001 41.096 292.001 42.696C292.001 44.488 292.897 45.864 294.689 46.824C296.481 47.72 299.265 48.648 303.041 49.608C306.881 50.568 310.049 51.56 312.545 52.584C315.041 53.608 317.185 55.208 318.977 57.384C320.833 59.496 321.793 62.312 321.857 65.832C321.857 68.904 320.993 71.656 319.265 74.088C317.601 76.52 315.169 78.44 311.969 79.848C308.833 81.192 305.153 81.864 300.929 81.864ZM353.242 81.864C348.89 81.864 344.986 81.096 341.53 79.56C338.074 77.96 335.322 75.816 333.274 73.128C331.29 70.44 330.202 67.464 330.01 64.2H343.546C343.802 66.248 344.794 67.944 346.522 69.288C348.314 70.632 350.522 71.304 353.146 71.304C355.706 71.304 357.69 70.792 359.098 69.768C360.57 68.744 361.306 67.432 361.306 65.832C361.306 64.104 360.41 62.824 358.618 61.992C356.89 61.096 354.106 60.136 350.266 59.112C346.298 58.152 343.034 57.16 340.474 56.136C337.978 55.112 335.802 53.544 333.946 51.432C332.154 49.32 331.258 46.472 331.258 42.888C331.258 39.944 332.09 37.256 333.754 34.824C335.482 32.392 337.914 30.472 341.05 29.064C344.25 27.656 347.994 26.952 352.282 26.952C358.618 26.952 363.674 28.552 367.45 31.752C371.226 34.888 373.306 39.144 373.69 44.52H360.826C360.634 42.408 359.738 40.744 358.138 39.528C356.602 38.248 354.522 37.608 351.898 37.608C349.466 37.608 347.578 38.056 346.234 38.952C344.954 39.848 344.314 41.096 344.314 42.696C344.314 44.488 345.21 45.864 347.002 46.824C348.794 47.72 351.578 48.648 355.354 49.608C359.194 50.568 362.362 51.56 364.858 52.584C367.354 53.608 369.498 55.208 371.29 57.384C373.146 59.496 374.106 62.312 374.17 65.832C374.17 68.904 373.306 71.656 371.578 74.088C369.914 76.52 367.482 78.44 364.282 79.848C361.146 81.192 357.466 81.864 353.242 81.864ZM392.018 21.48C389.65 21.48 387.666 20.744 386.066 19.272C384.53 17.736 383.762 15.848 383.762 13.608C383.762 11.368 384.53 9.512 386.066 8.04C387.666 6.504 389.65 5.736 392.018 5.736C394.386 5.736 396.338 6.504 397.874 8.04C399.474 9.512 400.274 11.368 400.274 13.608C400.274 15.848 399.474 17.736 397.874 19.272C396.338 20.744 394.386 21.48 392.018 21.48ZM398.642 27.816V81H385.202V27.816H398.642ZM436.305 38.856H426.993V81H413.361V38.856H407.313V27.816H413.361V25.128C413.361 18.6 415.217 13.8 418.929 10.728C422.641 7.656 428.241 6.216 435.729 6.408V17.736C432.465 17.672 430.193 18.216 428.913 19.368C427.633 20.52 426.993 22.6 426.993 25.608V27.816H436.305V38.856ZM495.895 27.816L462.967 106.152H448.663L460.183 79.656L438.871 27.816H453.943L467.671 64.968L481.591 27.816H495.895Z" fill="url(#paint0_linear_164_223)"/>
<path d="M100.951 92H43.223C36.9937 92 31.3617 90.848 26.327 88.544C21.2923 86.24 16.9403 83.04 13.271 78.944C9.687 74.848 6.91367 70.112 4.951 64.736C2.98833 59.2747 2.007 53.4293 2.007 47.2C2.007 41.056 2.98833 35.296 4.951 29.92C6.91367 24.4587 9.687 19.68 13.271 15.584C16.9403 11.4027 21.2923 8.16 26.327 5.856C31.3617 3.55199 36.9937 2.39999 43.223 2.39999H100.951V15.2H43.223C37.335 15.2 32.2577 16.6507 27.991 19.552C23.8097 22.368 20.567 26.208 18.263 31.072C15.959 35.936 14.807 41.312 14.807 47.2C14.807 53.088 15.959 58.464 18.263 63.328C20.567 68.1067 23.8097 71.9467 27.991 74.848C32.2577 77.7493 37.335 79.2 43.223 79.2H100.951V92Z" fill="url(#paint1_linear_164_223)"/>
<defs>
<linearGradient id="paint0_linear_164_223" x1="102" y1="47.5" x2="503" y2="47.5" gradientUnits="userSpaceOnUse">
<stop stop-color="#333D86"/>
<stop offset="1" stop-color="#91B0FE"/>
</linearGradient>
<linearGradient id="paint1_linear_164_223" x1="51" y1="0" x2="51" y2="94" gradientUnits="userSpaceOnUse">
<stop stop-color="#333D86"/>
<stop offset="1" stop-color="#BECEF7"/>
</linearGradient>
</defs>
</svg>
